<?xml version="1.0" encoding="UTF-8"?>
<!-- Generator: Adobe Illustrator 19.0.1, SVG Export Plug-In . SVG Version: 6.00 Build 0)  -->
<svg version="1.1" id="Layer_1" xmlns="http://www.w3.org/2000/svg" xmlns:xlink="http://www.w3.org/1999/xlink" x="0px" y="0px" width="58.2px" height="60.2px" viewBox="79.8 252.9 58.2 60.2" style="enable-background:new 79.8 252.9 58.2 60.2;" xml:space="preserve">
<style type="text/css">
	.st0{fill:#FFFFFF;}
	.st1{fill:#E6E9EE;}
	.st2{fill:#324A5E;}
</style>
<path class="st0" d="M79.8,255.8v54.3c0,1.6,1.3,2.9,2.9,2.9h31.7v-9.4c0-1.7,1.3-2.9,2.9-2.9h9.4v-44.9c0-1.6-1.3-2.9-2.9-2.9H82.7  C81.1,253,79.8,254.3,79.8,255.8z"/>
<path class="st1" d="M114.5,313.1l12.3-12.3h-9.3c-1.7,0-2.9,1.3-2.9,2.9L114.5,313.1L114.5,313.1L114.5,313.1z"/>
<path class="st2" d="M115.3,281.3c-3,0.1-6.1,0.4-9.2,0.9c2.1,0.3,4.2,0.6,6.2,1.1c-5.1,3.2-10.5,6.2-16.2,8.4  c-0.1-6.2,2.4-12.8,6.9-18.4c0.1,2.2,0.4,4.4,0.6,6.5c0.5-3.2,1.3-6.5,2.2-9.7l0,0c1.8-1.7,3.7-3.3,5.8-4.7  c-0.8,2.1-1.5,4.1-2.2,6.2c1.8-2.9,3.9-5.7,6.1-8.4c1.9-0.9,3.9-1.7,6-2.3c-1.1,2.1-2.2,4.2-3.1,6.4c2-2.4,4.2-4.9,6.5-7.2  c4.5-0.8,9-0.6,12.9,0.6c-2.6,3.2-5.4,6.2-8.3,9c-2.9,0.2-5.9,0.6-8.8,1.3c2.2,0.2,4.4,0.5,6.5,0.9c-1.4,1.2-2.7,2.4-4.1,3.5l0,0  c-2.9,0.6-6,1.3-8.9,2.2c2-0.1,4,0,6,0.1c-0.5,0.4-1,0.8-1.5,1.1C117.6,279.7,116.5,280.4,115.3,281.3z"/>
<path class="st1" d="M134.8,261.6c-2,0.6-4.8,1.6-8,3.1c-3.2,1.4-6.9,3.4-10.5,5.9c-1.8,1.2-3.7,2.6-5.5,4s-3.5,3-5.2,4.7  c-1.7,1.7-3.3,3.4-4.7,5.1c-1.5,1.7-2.9,3.6-4.2,5.4c-2.2,3.2-4.1,6.3-5.5,9.3c-0.2,0.5-0.1,1,0.2,1.4l0,0c1.7-3,3.8-6.5,6.3-9.9  c1.3-1.7,2.7-3.5,4.2-5.2c1.5-1.7,3.1-3.4,4.7-5c1.7-1.7,3.4-3.2,5.1-4.6s3.5-2.8,5.3-4.1c3.5-2.5,7-4.6,10.2-6.2  c3.2-1.6,5.8-2.8,7.8-3.6c1.9-0.8,3.1-1.1,3.1-1.1S136.8,260.9,134.8,261.6z"/>
</svg>