<?xml version="1.0" encoding="UTF-8"?>
<!-- Generator: Adobe Illustrator 19.0.1, SVG Export Plug-In . SVG Version: 6.00 Build 0)  -->
<svg version="1.1" id="Layer_1" xmlns="http://www.w3.org/2000/svg" xmlns:xlink="http://www.w3.org/1999/xlink" x="0px" y="0px" width="44.7px" height="59.5px" viewBox="29.6 182.5 44.7 59.5" style="enable-background:new 29.6 182.5 44.7 59.5;" xml:space="preserve">
<style type="text/css">
	.st0{fill:#13425F;}
	.st1{fill:#0A2735;}
	.st2{fill:#FFFFFF;}
	.st3{fill:#FF8063;}
</style>
<path class="st0" d="M72.4,236.7l-4.8,0.6l-2.9,3.9c-0.9,1.2-2.8,1.1-3.5-0.2l-14.3-24.8l12.9-7.4L74,233.5  C74.7,234.9,73.9,236.5,72.4,236.7z"/>
<path class="st1" d="M65.9,234.5L65.9,234.5c-0.5,0.3-1.2,0.1-1.5-0.4l-10.6-18.4c-0.3-0.5-0.1-1.2,0.4-1.5l0,0  c0.5-0.3,1.2-0.1,1.5,0.4l10.6,18.4C66.6,233.6,66.5,234.2,65.9,234.5z"/>
<path class="st0" d="M31.5,236.7l4.8,0.6l2.9,3.9c0.9,1.2,2.8,1.1,3.5-0.2l14.3-24.8l-12.9-7.4l-14.3,24.8  C29.1,234.9,30,236.5,31.5,236.7z"/>
<g>
	<path class="st1" d="M69.1,225.1l-9.5-16.4H44.2l-9.5,16.4c3.8,3.2,8.5,5.4,13.7,6.1l3.5-6l3.5,6C60.6,230.5,65.3,228.3,69.1,225.1   z"/>
	<path class="st1" d="M37.9,234.5L37.9,234.5c0.5,0.3,1.2,0.1,1.5-0.4L50,215.7c0.3-0.5,0.1-1.2-0.4-1.5l0,0   c-0.5-0.3-1.2-0.1-1.5,0.4l-10.6,18.4C37.2,233.6,37.4,234.2,37.9,234.5z"/>
</g>
<circle class="st0" cx="52.1" cy="204.9" r="22.3"/>
<g>
	<path class="st0" d="M51.9,227.2c-12.3,0-22.3-10-22.3-22.3c0-12.3,10-22.3,22.3-22.3s22.3,10,22.3,22.3   C74.2,217.2,64.2,227.2,51.9,227.2z M51.9,184.7c-11.1,0-20.2,9.1-20.2,20.2c0,11.1,9.1,20.2,20.2,20.2s20.2-9.1,20.2-20.2   C72.1,193.7,63.1,184.7,51.9,184.7z"/>
</g>
<circle class="st2" cx="51.9" cy="204.9" r="18.1"/>
<path class="st3" d="M41.7,205.8c-0.2-0.2-0.3-0.5-0.3-0.6c0-0.2,0.1-0.5,0.3-0.6l1.3-1.3c0.4-0.4,0.9-0.4,1.3,0l0.1,0.1l5.1,5.4  c0.2,0.2,0.5,0.2,0.6,0L62.4,196h0.1l0,0c0.4-0.4,0.9-0.4,1.3,0l1.3,1.3c0.4,0.4,0.4,0.9,0,1.3l0,0l-14.7,15.2  c-0.2,0.2-0.4,0.3-0.6,0.3c-0.3,0-0.5-0.1-0.6-0.3l-7.2-7.7L41.7,205.8L41.7,205.8z"/>
</svg>